<svg xmlns="http://www.w3.org/2000/svg" width="1024" height="1024" viewBox="0 0 1024 1024"><defs><style>.a{fill:#5346ee;}.b{fill:#fff;}</style></defs><title>logo</title><rect class="a" width="1024" height="1024" rx="240" ry="240"/><path class="b" d="M297.34,599.21q-81.52-59.87-81.52-141.39t64-131.06q64-49.54,161-49.53,63,0,104.75,31.47t41.8,77.92q0,46.42-31,73.78T479,494q21.67-31,21.67-59.35T481,388.68q-19.59-17.55-49.53-17.55T382,393.32q-19.59,22.17-19.61,51.08,0,47.48,44.38,84.62a562.39,562.39,0,0,0,57.81,40.77q31,19.08,33,20.12a53.25,53.25,0,0,0,8.25,5.16q18.6-21.68,53.68-59.34t55.72-60.36q57.79-63,65-105.27,2.07-8.25,2.06-31.48t-13.92-48q-13.92-24.75-33.55-37.15a246.52,246.52,0,0,0-38.7-20.13q-19.08-7.71-33-10.83t-13.94-4.12q0-7.22,22.7-16.52a255.13,255.13,0,0,1,88.24-15.48q45.93,0,89.26,33,58.83,45.42,58.83,120.75,0,46.43-23.73,91.84Q742.14,512.51,586.3,652.87,624.51,691,624.49,734.4T592,807.66q-32.5,29.94-76.89,29.94-40.25,0-70.19-32-19.59-21.68-19.61-54.7T447,676.6Q336.57,627.06,297.34,599.21Zm224,116.61Q496.54,741.61,496.52,753q0,25.77,22.71,27.86Q545,780.84,545,752,545,734.39,521.29,715.82Z"/></svg>