<svg xmlns="http://www.w3.org/2000/svg" width="2746.64" height="1024" viewBox="0 0 2746.64 1024"><defs><style>.a{fill:#5346ee;}</style></defs><title>text</title><path class="a" d="M479.09,440.38q76.45,56.14,76.46,132.6t-60,122.91q-60,46.47-151,46.46-59,0-98.24-29.52t-39.2-73.07q0-43.56,29-69.2t72.59-31.46q-20.33,29-20.33,55.65t18.39,43.07q18.38,16.47,46.46,16.46t46.46-20.81q18.38-20.81,18.39-47.91,0-44.5-41.62-79.37A526.24,526.24,0,0,0,322.3,468q-29-17.9-31-18.87a52.34,52.34,0,0,0-7.75-4.84q-17.41,20.33-50.33,55.65T181,556.52q-54.21,59.06-61,98.72-2,7.77-1.94,29.52t13.07,45Q144.22,753,162.6,764.61a228.66,228.66,0,0,0,36.3,18.88,200.8,200.8,0,0,0,31,10.16q13.06,2.9,13.06,3.87,0,6.76-21.29,15.49a239.22,239.22,0,0,1-82.75,14.51q-43.08,0-83.72-31Q0,754,0,683.31q0-43.54,22.26-86.14,39.67-75.49,185.83-207.12-35.82-35.79-35.81-76.46t30.49-68.72q30.48-28.06,72.1-28.07,37.75,0,65.82,30,18.38,20.32,18.39,51.29t-20.33,69.69Q442.31,414.25,479.09,440.38ZM269.07,331q23.22-24.18,23.22-34.84Q292.29,272,271,270q-24.19,0-24.2,27.1Q246.8,313.6,269.07,331Z"/><path class="a" d="M1011.42,388.11q0,100.68-120,153.89,2.91,17.43,8.71,41.62,17.43,71.64,58.07,73.56H964q77.43,0,115.18-136.47,20.32,18.4,38.71,55.17-13.56,52.26-38.23,88.07t-53.71,51.3q-51.32,27.11-96.79,27.1-106.49,0-149-119.05a456.48,456.48,0,0,1-22.26-96.78q55.17-13.54,87.1-45t31.94-67.26q0-61.94-61.94-61.95-33.88,0-58.07,25.65t-31.94,61.46q-5.8,49.36-18.87,155.34T689.12,736.54H560.39Q630.08,143.26,644.6,7.74,664.93,0,699.77,0q75.48,0,75.49,44.52v5.81q-19.38,175.19-35.81,268.1Q792.67,269.06,873,269.07q60,0,99.21,31T1011.42,388.11Z"/><path class="a" d="M1322.57,471.35q29.52-35.79,29.52-69.2t-17.9-45.49a68.68,68.68,0,0,0-39.2-12.1q-45.51,0-79.85,50.81t-34.36,121q0,70.18,33.39,104.52t82.76,34.36q72.58,0,139.37-50.33t108.4-131.62q21.27,20.32,38.71,50.32-31.94,72.6-113.24,142.28-40.65,33.89-96.3,55.17a318.32,318.32,0,0,1-114.69,21.29q-96.79,0-152.92-59-60-63.87-60-163.57t75-174.21q75-74.52,179.54-74.53,74.52,0,121,32.43T1469.2,391q0,74.53-59.52,121T1246.6,576.85l-13.55-57.11Q1293.05,507.19,1322.57,471.35Z"/><path class="a" d="M1634.21,743.32q-59.52,0-93.39-33.39t-33.88-91.47q0-15.47,52.26-459.73,13.54-114.19,72.59-144.21Q1658.88,0,1696.64,0,1824.4,0,1824.4,118.08q0,9.69-1,20.32-9.69,129.72-162.6,264.23-4.86,47.43-10.65,91.95-11.61,99.69-11.61,110.33,0,50.34,43.55,50.33,47.42,0,88.56-54.68t63.4-139.86q8.72,2.91,24.2,16t21.29,22.75q-15.49,80.34-69.69,153.89a218.77,218.77,0,0,1-68.72,61.94Q1693.73,743.33,1634.21,743.32Zm37.27-437.48q89-97.74,89-175.18,0-46.45-34.84-46.46-22.28,2-29.52,29t-13.55,88.08q-6.31,61-8.23,75.49Z"/><path class="a" d="M2164.6,563.3q-30.48,78.39-87.1,128.24t-129.21,49.84q-72.6,0-108.89-47.91t-36.29-109.85q0-12.57,1-25.16L1837,282.62A185.73,185.73,0,0,1,1902.8,271q63.87,0,63.88,47.43,0,1.95-16,129.21t-16,147.6q0,55.15,53.23,55.16,45.48,0,76.46-51.29,54.2-92.93,57.1-210h-8.71q-40.65,0-61.94-18.39-24.21-21.27-24.2-51.3T2045.07,271q22.26-19.35,53.24-19.36,73.53,0,91.94,76.47,29-3.87,41.62-7.75v55.17l-35.81,5.81v16.45Q2195.09,484.9,2164.6,563.3Zm-82.75-243.91q0,16.47,28.07,16.46h5.81q-6.78-26.13-20.33-26.13T2081.85,319.39Z"/><path class="a" d="M2406.08,1024q-55.17,0-94.85-33.39t-39.68-97.27q0-78.4,79.36-152.92-56.14-4.86-90-36.78t-33.87-90q0-27.09,6.77-81.3t14.52-117.12q7.74-62.9,16.45-133.56,30-10.63,55.17-10.65t37.75,1.94q12.57,1.95,24.19,14.52t11.62,35.81l-31.94,246.8q-1.95,15.49-1.94,21.29,0,57.12,52.27,57.11,47.42,0,77.43-44.52,2.89-22.26,14.52-128.24t19.35-165q8.71-18.37,36.3-29t45-10.65q31,0,56.14,7.74l-45.49,357.15q113.24,20.33,135.5,155.82-3.88,18.38-36.78,58.08-19.37-121-106.46-147.12l-15.49,121q-10.66,87.11-55.17,143.73T2406.08,1024Zm-43.55-101.62q15.46,15.47,41.13,15.48t39.2-21.29q13.54-21.3,21.29-85.17l12.59-106.47q-126.81,65.8-129.7,150Q2347,906.89,2362.53,922.38Z"/></svg>